<svg width="321" height="286" viewBox="0 0 321 286" fill="none" xmlns="http://www.w3.org/2000/svg">
<path fill-rule="evenodd" clip-rule="evenodd" d="M319.36 279.302C315.747 289.632 304.445 295.077 294.115 291.465L77.992 215.877L32.5099 252.434C23.9803 259.289 11.508 257.933 4.65221 249.403C-2.20358 240.873 -0.846652 228.401 7.68298 221.545L185.357 78.7378L173.451 24.0815C171.121 13.3889 177.901 2.83264 188.594 0.503383C199.286 -1.82589 209.842 4.95388 212.172 15.6464L260.553 237.744L307.198 254.057C317.528 257.67 322.973 268.973 319.36 279.302ZM216.65 222.389L194.782 122.005L114.388 186.623L216.65 222.389Z" fill="url(#paint0_linear_120_57)" fill-opacity="0.5"/>
<defs>
<linearGradient id="paint0_linear_120_57" x1="130.922" y1="363.563" x2="218.317" y2="-39.1467" gradientUnits="userSpaceOnUse">
<stop/>
<stop offset="1" stop-opacity="0"/>
</linearGradient>
</defs>
</svg>
