<svg width="50" height="50" viewBox="0 0 50 50" fill="none" xmlns="http://www.w3.org/2000/svg">
<path d="M40.8 6H7.2C5.29044 6 3.45909 6.77042 2.10883 8.14178C0.75857 9.51314 0 11.3731 0 13.3125V37.6875C0 39.6269 0.75857 41.4869 2.10883 42.8582C3.45909 44.2296 5.29044 45 7.2 45H40.8C42.7096 45 44.5409 44.2296 45.8912 42.8582C47.2414 41.4869 48 39.6269 48 37.6875V13.3125C48 11.3731 47.2414 9.51314 45.8912 8.14178C44.5409 6.77042 42.7096 6 40.8 6V6ZM39.192 10.875L24 22.4531L8.808 10.875H39.192ZM40.8 40.125H7.2C6.56348 40.125 5.95303 39.8682 5.50294 39.4111C5.05286 38.954 4.8 38.334 4.8 37.6875V13.9219L22.56 27.45C22.9754 27.7664 23.4807 27.9375 24 27.9375C24.5193 27.9375 25.0246 27.7664 25.44 27.45L43.2 13.9219V37.6875C43.2 38.334 42.9471 38.954 42.4971 39.4111C42.047 39.8682 41.4365 40.125 40.8 40.125Z" fill="#DBEBFF"/>
</svg>
