<svg width="50" height="50" viewBox="0 0 50 50" fill="none" xmlns="http://www.w3.org/2000/svg">
<g clip-path="url(#clip0_39_106)">
<path fill-rule="evenodd" clip-rule="evenodd" d="M13.8116 2.141C16.3175 2.02564 17.1165 2 23.5 2C29.8835 2 30.6825 2.02777 33.1863 2.141C35.6901 2.25423 37.3992 2.65373 38.8946 3.23268C40.4606 3.82445 41.8813 4.7495 43.0563 5.94586C44.2526 7.11873 45.1755 8.53727 45.7652 10.1054C46.3463 11.6008 46.7436 13.3099 46.859 15.8095C46.9744 18.3197 47 19.1187 47 25.5C47 31.8835 46.9722 32.6825 46.859 35.1884C46.7458 37.688 46.3463 39.397 45.7652 40.8925C45.1755 42.4608 44.2511 43.8817 43.0563 45.0563C41.8813 46.2526 40.4606 47.1755 38.8946 47.7652C37.3992 48.3463 35.6901 48.7436 33.1905 48.859C30.6825 48.9744 29.8835 49 23.5 49C17.1165 49 16.3175 48.9722 13.8116 48.859C11.312 48.7458 9.60296 48.3463 8.1075 47.7652C6.53924 47.1755 5.11834 46.251 3.94373 45.0563C2.74818 43.8827 1.82299 42.4625 1.23268 40.8946C0.653727 39.3992 0.256364 37.6901 0.141 35.1905C0.0256363 32.6803 0 31.8813 0 25.5C0 19.1165 0.0277727 18.3175 0.141 15.8137C0.254227 13.3099 0.653727 11.6008 1.23268 10.1054C1.82386 8.53745 2.74975 7.11726 3.94586 5.94373C5.11881 4.74843 6.53828 3.82327 8.10536 3.23268C9.60082 2.65373 11.3099 2.25636 13.8095 2.141H13.8116ZM32.9961 6.371C30.518 6.25777 29.7745 6.23427 23.5 6.23427C17.2255 6.23427 16.482 6.25777 14.0039 6.371C11.7115 6.47568 10.4682 6.85809 9.63927 7.18068C8.54332 7.60795 7.75927 8.11427 6.93677 8.93677C6.1571 9.69529 5.55707 10.6187 5.18068 11.6393C4.85809 12.4682 4.47568 13.7115 4.371 16.0039C4.25777 18.482 4.23427 19.2255 4.23427 25.5C4.23427 31.7745 4.25777 32.518 4.371 34.9961C4.47568 37.2885 4.85809 38.5318 5.18068 39.3607C5.55668 40.3798 6.157 41.3048 6.93677 42.0632C7.69518 42.843 8.62023 43.4433 9.63927 43.8193C10.4682 44.1419 11.7115 44.5243 14.0039 44.629C16.482 44.7422 17.2234 44.7657 23.5 44.7657C29.7766 44.7657 30.518 44.7422 32.9961 44.629C35.2885 44.5243 36.5318 44.1419 37.3607 43.8193C38.4567 43.392 39.2407 42.8857 40.0632 42.0632C40.843 41.3048 41.4433 40.3798 41.8193 39.3607C42.1419 38.5318 42.5243 37.2885 42.629 34.9961C42.7422 32.518 42.7657 31.7745 42.7657 25.5C42.7657 19.2255 42.7422 18.482 42.629 16.0039C42.5243 13.7115 42.1419 12.4682 41.8193 11.6393C41.392 10.5433 40.8857 9.75927 40.0632 8.93677C39.3047 8.15715 38.3813 7.55713 37.3607 7.18068C36.5318 6.85809 35.2885 6.47568 32.9961 6.371V6.371ZM20.4984 32.7444C22.1747 33.4422 24.0413 33.5364 25.7793 33.0109C27.5174 32.4853 29.0191 31.3727 30.0279 29.863C31.0367 28.3533 31.4901 26.5401 31.3106 24.7333C31.1312 22.9264 30.33 21.2379 29.0439 19.9561C28.224 19.1368 27.2327 18.5094 26.1413 18.1192C25.0498 17.7289 23.8855 17.5855 22.732 17.6993C21.5785 17.8131 20.4646 18.1812 19.4704 18.7771C18.4762 19.3731 17.6266 20.182 16.9826 21.1458C16.3386 22.1095 15.9163 23.204 15.7461 24.3506C15.5759 25.4971 15.662 26.6671 15.9982 27.7763C16.3345 28.8856 16.9125 29.9065 17.6906 30.7655C18.4688 31.6246 19.4277 32.3004 20.4984 32.7444ZM14.9588 16.9588C16.0805 15.8372 17.412 14.9474 18.8775 14.3404C20.343 13.7334 21.9138 13.4209 23.5 13.4209C25.0862 13.4209 26.657 13.7334 28.1225 14.3404C29.588 14.9474 30.9195 15.8372 32.0412 16.9588C33.1628 18.0805 34.0526 19.412 34.6596 20.8775C35.2666 22.343 35.5791 23.9138 35.5791 25.5C35.5791 27.0862 35.2666 28.657 34.6596 30.1225C34.0526 31.588 33.1628 32.9195 32.0412 34.0412C29.7759 36.3064 26.7036 37.5791 23.5 37.5791C20.2964 37.5791 17.2241 36.3064 14.9588 34.0412C12.6936 31.7759 11.4209 28.7036 11.4209 25.5C11.4209 22.2964 12.6936 19.2241 14.9588 16.9588V16.9588ZM38.258 15.2198C38.536 14.9576 38.7585 14.6423 38.9124 14.2926C39.0663 13.9428 39.1485 13.5658 39.154 13.1837C39.1596 12.8017 39.0885 12.4224 38.9448 12.0683C38.8012 11.7142 38.5879 11.3925 38.3177 11.1224C38.0475 10.8522 37.7259 10.6389 37.3718 10.4953C37.0177 10.3516 36.6384 10.2805 36.2564 10.2861C35.8743 10.2916 35.4973 10.3738 35.1475 10.5277C34.7978 10.6816 34.4825 10.9041 34.2203 11.1821C33.7103 11.7227 33.4312 12.4407 33.442 13.1837C33.4528 13.9268 33.7528 14.6363 34.2783 15.1618C34.8038 15.6873 35.5133 15.9873 36.2564 15.9981C36.9994 16.0089 37.7174 15.7297 38.258 15.2198V15.2198Z" fill="#DBEBFF"/>
</g>
<defs>
<clipPath id="clip0_39_106">
<rect width="50" height="50" fill="white"/>
</clipPath>
</defs>
</svg>
