<svg width="50" height="50" viewBox="0 0 50 50" fill="none" xmlns="http://www.w3.org/2000/svg">
<path fill-rule="evenodd" clip-rule="evenodd" d="M20.8819 19.847H29.2384V24.0095C30.4422 21.6155 33.5292 19.4645 38.1664 19.4645C47.0562 19.4645 49.1667 24.23 49.1667 32.9735V49.1667H40.1667V34.9647C40.1667 29.9855 38.9629 27.1775 35.8984 27.1775C31.6482 27.1775 29.8819 30.2037 29.8819 34.9625V49.1667H20.8819V19.847V19.847ZM5.44916 48.7842H14.4492V19.4645H5.44916V48.7842V48.7842ZM15.7384 9.90425C15.7387 10.6586 15.5891 11.4055 15.2983 12.1016C15.0074 12.7976 14.5811 13.4289 14.0442 13.9587C12.9561 15.0402 11.4832 15.6455 9.94916 15.6417C8.41779 15.6407 6.94836 15.0369 5.85866 13.961C5.32364 13.4294 4.89878 12.7974 4.60844 12.1012C4.31809 11.4051 4.16797 10.6585 4.16666 9.90425C4.16666 8.381 4.77416 6.923 5.86091 5.8475C6.94966 4.7701 8.4197 4.16607 9.95141 4.16675C11.4859 4.16675 12.9574 4.772 14.0442 5.8475C15.1287 6.923 15.7384 8.381 15.7384 9.90425Z" fill="#DDDDDD"/>
</svg>
