<svg width="625" height="613" viewBox="0 0 625 613" fill="none" xmlns="http://www.w3.org/2000/svg">
<path fill-rule="evenodd" clip-rule="evenodd" d="M169.032 6.21848C187.724 -5.40281 212.298 0.329254 223.92 19.0214L467.064 410.105L584.428 410.233C606.439 410.256 624.262 428.119 624.238 450.129C624.215 472.139 606.352 489.963 584.342 489.939L125.864 489.442L75.5511 590.074C65.7083 609.761 41.7698 617.741 22.083 607.898C2.39619 598.055 -5.58395 574.117 4.25885 554.43L208.706 145.511L156.229 61.1058C144.608 42.4137 150.34 17.8398 169.032 6.21848ZM258.099 224.957L165.693 409.779L373.146 410.004L258.099 224.957Z" fill="url(#paint0_linear_18_182)"/>
<defs>
<linearGradient id="paint0_linear_18_182" x1="570.5" y1="112" x2="-74.5" y2="632.5" gradientUnits="userSpaceOnUse">
<stop/>
<stop offset="1" stop-opacity="0"/>
</linearGradient>
</defs>
</svg>
