<svg width="864" height="940" viewBox="0 0 864 940" fill="none" xmlns="http://www.w3.org/2000/svg">
<path fill-rule="evenodd" clip-rule="evenodd" d="M-130.898 38.9423C-117.644 7.16293 -81.1378 -7.85528 -49.3585 5.39814L615.54 282.691L765.144 176.258C793.2 156.297 832.126 162.86 852.086 190.917C872.046 218.973 865.483 257.898 837.427 277.859L253.006 693.639L280.32 867.511C285.664 901.526 262.421 933.433 228.406 938.777C194.391 944.12 162.484 920.877 157.141 886.862L46.1475 180.328L-97.3535 120.481C-129.133 107.228 -144.151 70.7216 -130.898 38.9423ZM181.216 236.658L231.383 555.996L495.823 367.863L181.216 236.658Z" fill="url(#paint0_linear_120_56)" fill-opacity="0.5"/>
<defs>
<linearGradient id="paint0_linear_120_56" x1="476.534" y1="-190.955" x2="127.732" y2="1057.83" gradientUnits="userSpaceOnUse">
<stop/>
<stop offset="1" stop-opacity="0"/>
</linearGradient>
</defs>
</svg>
